<?xml version="1.0" encoding="UTF-8"?>
<svg width="16" height="16" fill="none" version="1.1" viewBox="0 0 16 16" xmlns="http://www.w3.org/2000/svg">
 <path transform="matrix(.066951 0 0 .067739 -.58434 -.64088)" d="m120.72 9.461c-60.97 0-111.99 51.553-111.99 118.01 0 62.51 50.088 118.19 117.8 118.19 24.6 0 42.033-6.7238 60.883-15.224l54.669 12.946-13.39-52.159c13.71-20.07 19.913-42.324 18.933-67.844l-0.02917 0.02884c-0.46471 0.75728-0.92363 1.5079-1.4003 2.249 0.37962-0.74533 0.74016-1.496 1.1086-2.249-8.5688 12.935-17.899 23.235-28.414 30.851-14.16 9.5284-31.255 14.762-51.723 14.762-32.45 0-59.933-14.274-71.443-46.104-3.63 26 13.258 54.83 42.388 63.49 30.75 9.26 62.066 1.3771 91.806-23.153-3.84 10.94-10.843 21.513-15.053 26.123l10.21 37.454-38.624-9.7167c-18.54 10.94-35.647 16.87-59.337 16.55-51.063 0-92.514-34.702-102.98-78.137-1.1113-4.6135-1.3951-12.285-0.55428-16.954 5.4772-30.42 28.308-57.597 59.395-61.184-31.909 5.3794-50.987 33.52-56.945 60.347-3.986 17.949 7.9354 38.93 19.02 53.341 3.408 4.43 9.4263 11.253 13.653 14.907 25.586 22.118 64.884 28.042 80.953 25.46-44.78-3.71-69.926-46.863-69.926-79.233 0-24.521 5.7669-42.184 13.944-53.629 3.0052-2.8094 6.234-5.2681 9.6561-7.3236 8.12-7.61 25.949-6.3167 36.349 4.6133 7.97 8.5 17.199 12.427 28.239 12.427 23.21 0 38.099-21.09 38.099-40.51 0-32.37-32.884-58.329-75.294-58.329zm18.933 221.99c14.02-1.6711 35.689-10.421 46.588-16.55l36.466 9.1401-9.131-33.331c-13.987 14.525-22.374 19.186-36.699 19.837-5.4216 0.24638-14.243 0.17238-19.662-0.11534-40.03-2.1252-67.024-27.851-77.249-62.914-0.66 18.1 4.8824 46.282 29.172 63.202 17.639 12.092 30.193 20.515 30.514 20.731zm-28.589-149.3c0.05569 0.032239 0.11948 0.082787 0.17503 0.11533-0.01457-0.003981-0.0438 0.003963-0.05834 0-0.0123-0.012111-0.04599-0.01676-0.05835-0.028833-0.02461-0.024051-0.03351-0.062602-0.05834-0.086499z" fill="#fff"/>
</svg>
