<?xml version="1.0" encoding="UTF-8"?>
<svg width="128" height="128" version="1.1" viewBox="0 0 128 128" xmlns="http://www.w3.org/2000/svg" xmlns:xlink="http://www.w3.org/1999/xlink">
 <defs>
  <filter id="alpha" x="0" y="0" width="1" height="1">
   <feColorMatrix in="SourceGraphic" values="0 0 0 0 1 0 0 0 0 1 0 0 0 0 1 0 0 0 1 0"/>
  </filter>
  <clipPath>
   <rect width="192" height="152"/>
  </clipPath>
  <clipPath>
   <rect width="192" height="152"/>
  </clipPath>
  <clipPath>
   <rect width="192" height="152"/>
  </clipPath>
  <clipPath>
   <rect width="192" height="152"/>
  </clipPath>
  <clipPath>
   <rect width="192" height="152"/>
  </clipPath>
  <clipPath>
   <rect width="192" height="152"/>
  </clipPath>
  <clipPath>
   <rect width="192" height="152"/>
  </clipPath>
  <clipPath>
   <rect width="192" height="152"/>
  </clipPath>
  <clipPath>
   <rect width="128" height="128"/>
  </clipPath>
  <clipPath>
   <rect width="128" height="128"/>
  </clipPath>
  <clipPath>
   <rect width="128" height="128"/>
  </clipPath>
  <clipPath>
   <rect width="128" height="128"/>
  </clipPath>
  <linearGradient id="paint0_linear_1_1180" x1="128.2" x2="128.2" y1="9.497" y2="245.7" gradientUnits="userSpaceOnUse">
   <stop stop-color="#75EAC8" offset="0"/>
   <stop stop-color="#147496" offset="1"/>
  </linearGradient>
  <linearGradient id="paint1_linear_1_1180" x1="102.4" x2="102.4" y1="20.62" y2="143.8" gradientTransform="matrix(.5 0 0 .5 69.635 -10.73)" gradientUnits="userSpaceOnUse">
   <stop stop-color="#5CE6D3" offset="0"/>
   <stop stop-color="#75EAC8" offset="1"/>
  </linearGradient>
  <linearGradient id="paint2_linear_1_1180" x1="107.4" x2="129.2" y1="28.07" y2="69.11" gradientTransform="matrix(.5 0 0 .5 69.635 -10.73)" gradientUnits="userSpaceOnUse">
   <stop stop-color="#C3F0E9" offset="0"/>
   <stop stop-color="#D5F7F0" offset="1"/>
  </linearGradient>
  <linearGradient id="paint3_linear_1_1180" x1="189.9" x2="189.9" y1="123.4" y2="180.9" gradientTransform="matrix(.5 0 0 .5 69.635 -10.73)" gradientUnits="userSpaceOnUse">
   <stop stop-color="#75EAC8" offset="0"/>
   <stop stop-color="#2BA5AE" offset="1"/>
  </linearGradient>
  <linearGradient id="paint4_linear_1_1180" x1="126.9" x2="126.9" y1="82.29" y2="233.2" gradientUnits="userSpaceOnUse">
   <stop stop-color="#0B688A" offset="0"/>
   <stop stop-color="#39C4B4" offset=".5781"/>
   <stop stop-color="#CCF8E5" offset="1"/>
  </linearGradient>
  <linearGradient id="linearGradient57" x1="300" x2="428" y1="235" y2="235" gradientTransform="matrix(0 .37 -.98462 0 295.39 -30.36)" gradientUnits="userSpaceOnUse">
   <stop stop-color="#f9ef6b" offset="0"/>
   <stop stop-color="#f5c211" offset="1"/>
  </linearGradient>
  <clipPath id="clipPath66">
   <path d="m60.254 4.9492c-30.485 0-56 25.77-56 59 0 31.255 25.045 59.102 58.9 59.102 12.3 0 21.02-3.3652 30.445-7.6152l27.326 6.4785-6.6856-26.078c6.855-10.035 9.9451-21.162 9.4551-33.922l-6e-3 0.0059c-0.24015 0.39135-0.48393 0.77944-0.73047 1.1621 0.19634-0.38496 0.38974-0.77308 0.58008-1.1621-4.3021 6.4941-8.9913 11.666-14.275 15.479-7.0661 4.7343-15.593 7.3359-25.793 7.3359-16.225 0-29.966-7.1397-35.721-23.055-1.815 13 6.6342 27.416 21.199 31.746 15.375 4.63 31.03 0.69469 45.9-11.57-1.92 5.47-5.4302 10.754-7.5352 13.059l5.1113 18.727-19.307-4.8652c-9.27 5.47-17.825 8.4452-29.67 8.2852-25.531 0-46.257-17.355-51.488-39.072-0.55566-2.3067-0.69776-6.1456-0.27734-8.4805 2.7434-15.236 14.189-28.846 29.773-30.602-16.008 2.6523-25.574 16.745-28.559 30.184-1.993 8.9748 3.9691 19.462 9.5117 26.668 1.704 2.2153 4.709 5.6283 6.8223 7.4551 12.793 11.059 32.448 14.024 40.482 12.732 0 0-0.0016-4e-4 -0.0039-2e-3 -22.39-1.855-34.953-23.432-34.953-39.617 0-12.255 2.8752-21.088 6.9609-26.811 1.5048-1.4078 3.1277-2.6364 4.8418-3.666 4.06-3.805 12.964-3.1603 18.164 2.3047 3.985 4.25 8.6109 6.2109 14.131 6.2109 11.605 0 19.049-10.54 19.049-20.25 0-16.185-16.445-29.166-37.65-29.166zm9.457 110.99c7.01-0.83536 17.843-5.2164 23.293-8.2812l18.234 4.5742-4.5606-16.668c-6.9935 7.2625-11.187 9.5983-18.35 9.9238-2.7108 0.12319-7.1165 0.0872-9.8262-0.0566-20.015-1.0626-33.521-13.93-38.633-31.461-0.33 9.05 2.4409 23.136 14.586 31.596 8.814 6.042 15.087 10.26 15.256 10.373zm-14.293-74.648c0.02919 0.01689 0.05682 0.03372 0.08593 0.05078-0.01622-0.0044-0.03071-0.0093-0.04687-0.01367-0.0129-0.0126-0.02604-0.02459-0.03906-0.03711z" stroke-width=".5"/>
  </clipPath>
 </defs>
 <g transform="translate(-69.745 10.95)">
  <path transform="matrix(.5 0 0 .5 69.635 -10.73)" d="m247.6 123.4c-17.52 28.55-43.49 45.63-80.44 45.63-32.45 0-59.93-14.28-71.44-46.11-3.63 26 13.27 54.83 42.4 63.49 30.75 9.26 62.06 1.39 91.8-23.14-3.84 10.94-10.86 21.51-15.07 26.12l10.22 37.45-38.61-9.73c-18.54 10.94-35.65 16.89-59.34 16.57-51.063 0-92.515-34.707-102.98-78.142-1.1113-4.6135-1.394-12.293-0.55317-16.962 5.8804-32.659 31.74-61.605 66.371-61.605 8.31 0 15.21 1.73 21.27 5.28-5.05-1.38-8.5-1.62-12.96-1.38-31.36 1.89-52 32.45-52 68.92 0 38.36 26.133 76.659 72.143 79.779-33.63-5.64-56.293-35.799-56.293-77.769 0-27.52 13.04-49.62 31.22-60.54 8.12-7.61 25.93-6.32 36.33 4.61 7.97 8.5 17.22 12.42 28.26 12.42 23.21 0 38.1-21.08 38.1-40.5 0-32.37-32.89-58.33-75.3-58.33-60.97 0-112 51.54-112 118 0 62.51 50.09 118.2 117.8 118.2 24.6 0 42.04-6.73 60.89-15.23l54.65 12.96-13.37-52.16c13.71-20.07 19.89-42.32 18.91-67.84z" fill="url(#paint0_linear_1_1180)"/>
  <g stroke-width=".5">
   <path d="m80.08 52.37c0-27.825 23.965-52.8 49.895-52.8 19.225 0 31.62 13.76 31.62 24.1 0 7.65-6.365 13.545-13.22 13.545-4.76 0-7.79-3.06-10.735-6.39-6.03-6.285-12.14-8.94-20.85-8.94-19.7 0-36.71 18.405-36.71 39.255v-8.775z" fill="url(#paint1_linear_1_1180)"/>
   <path d="m81.02 43.27c5.52-20.85 22.125-38.13 47.17-39.89 10.8-0.445 22.25 5.105 26.49 10.985 2.56 3.425 0.865 8.505-3.98 8.505-3.59 0-6.23-3.66-7.885-5.165-5.87-5.245-12.035-7.71-20.59-7.71-18.5 0-35.51 12.51-41.205 33.275z" fill="url(#paint2_linear_1_1180)"/>
   <path d="m193.28 50.97c-7.755 15.85-20.485 28.445-38.55 28.445-10.18 0-13.73-3.12-18.575-5.205 4.98 2.485 10.345 3.59 17.065 0.17 17.39 0 29.825-7.96 40.06-23.41z" fill="url(#paint3_linear_1_1180)"/>
  </g>
  <path transform="matrix(.5 0 0 .5 69.635 -10.73)" d="m213.58 190.7c-13.987 14.525-22.375 19.194-36.7 19.845-5.4216 0.24638-14.234 0.17357-19.653-0.11415-40.03-2.1252-67.039-27.856-77.264-62.919-0.66 18.1 4.88 46.27 29.17 63.19 17.87 12.25 30.52 20.75 30.52 20.75-16.069 2.5826-55.381-3.3455-80.967-25.463-4.2264-3.6535-10.235-10.48-13.643-14.91-11.085-14.411-23.009-35.387-19.023-53.336 5.9683-26.877 25.101-55.064 57.117-60.369 5.5104-0.91298 14.734-1.118 20.07 0.48467 3.1812 0.95548 5.9485 2.4176 7.9651 4.4035-19.17 0-41.434 21.721-41.434 69.951 0 32.37 25.125 75.525 69.905 79.235 14.02-1.67 35.689-10.43 46.589-16.56l36.465 9.1479z" fill="url(#paint4_linear_1_1180)"/>
 </g>
 <g clip-path="url(#clipPath66)" opacity=".8">
  <path d="m128 80.641v47.359h-128v-47.359z" fill="url(#linearGradient57)"/>
  <path d="m13.309 80.641 47.355 47.359h21.215l-47.359-47.359zm42.422 0 47.363 47.359h21.215l-47.363-47.359zm42.43 0 29.84 29.84v-21.211l-8.6289-8.6289zm-98.16 7.9062v21.215l18.238 18.238h21.215z"/>
 </g>
</svg>
