<?xml version="1.0" encoding="UTF-8"?>
<svg width="128" height="128" fill="none" version="1.1" viewBox="0 0 128 128" xmlns="http://www.w3.org/2000/svg">
 <defs>
  <linearGradient id="paint0_linear_1_1180" x1="128.2" x2="128.2" y1="9.497" y2="245.7" gradientUnits="userSpaceOnUse">
   <stop stop-color="#75EAC8" offset="0"/>
   <stop stop-color="#147496" offset="1"/>
  </linearGradient>
  <linearGradient id="paint1_linear_1_1180" x1="102.4" x2="102.4" y1="20.62" y2="143.8" gradientTransform="matrix(.5 0 0 .5 4.365 4.73)" gradientUnits="userSpaceOnUse">
   <stop stop-color="#5CE6D3" offset="0"/>
   <stop stop-color="#75EAC8" offset="1"/>
  </linearGradient>
  <linearGradient id="paint2_linear_1_1180" x1="107.4" x2="129.2" y1="28.07" y2="69.11" gradientTransform="matrix(.5 0 0 .5 4.365 4.73)" gradientUnits="userSpaceOnUse">
   <stop stop-color="#C3F0E9" offset="0"/>
   <stop stop-color="#D5F7F0" offset="1"/>
  </linearGradient>
  <linearGradient id="paint3_linear_1_1180" x1="189.9" x2="189.9" y1="123.4" y2="180.9" gradientTransform="matrix(.5 0 0 .5 4.365 4.73)" gradientUnits="userSpaceOnUse">
   <stop stop-color="#75EAC8" offset="0"/>
   <stop stop-color="#2BA5AE" offset="1"/>
  </linearGradient>
  <linearGradient id="paint4_linear_1_1180" x1="126.9" x2="126.9" y1="82.29" y2="233.2" gradientUnits="userSpaceOnUse">
   <stop stop-color="#0B688A" offset="0"/>
   <stop stop-color="#39C4B4" offset=".5781"/>
   <stop stop-color="#CCF8E5" offset="1"/>
  </linearGradient>
 </defs>
 <g transform="translate(-4.4751 -4.51)">
  <path transform="matrix(.5 0 0 .5 4.365 4.73)" d="m247.6 123.4c-17.52 28.55-43.49 45.63-80.44 45.63-32.45 0-59.93-14.28-71.44-46.11-3.63 26 13.27 54.83 42.4 63.49 30.75 9.26 62.06 1.39 91.8-23.14-3.84 10.94-10.86 21.51-15.07 26.12l10.22 37.45-38.61-9.73c-18.54 10.94-35.65 16.89-59.34 16.57-51.063 0-92.515-34.707-102.98-78.142-1.1113-4.6135-1.394-12.293-0.55317-16.962 5.8804-32.659 31.74-61.605 66.371-61.605 8.31 0 15.21 1.73 21.27 5.28-5.05-1.38-8.5-1.62-12.96-1.38-31.36 1.89-52 32.45-52 68.92 0 38.36 26.133 76.659 72.143 79.779-33.63-5.64-56.293-35.799-56.293-77.769 0-27.52 13.04-49.62 31.22-60.54 8.12-7.61 25.93-6.32 36.33 4.61 7.97 8.5 17.22 12.42 28.26 12.42 23.21 0 38.1-21.08 38.1-40.5 0-32.37-32.89-58.33-75.3-58.33-60.97 0-112 51.54-112 118 0 62.51 50.09 118.2 117.8 118.2 24.6 0 42.04-6.73 60.89-15.23l54.65 12.96-13.37-52.16c13.71-20.07 19.89-42.32 18.91-67.84z" fill="url(#paint0_linear_1_1180)"/>
  <g stroke-width=".5">
   <path d="m14.81 67.83c0-27.825 23.965-52.8 49.895-52.8 19.225 0 31.62 13.76 31.62 24.1 0 7.65-6.365 13.545-13.22 13.545-4.76 0-7.79-3.06-10.735-6.39-6.03-6.285-12.14-8.94-20.85-8.94-19.7 0-36.71 18.405-36.71 39.255v-8.775z" fill="url(#paint1_linear_1_1180)"/>
   <path d="m15.75 58.73c5.52-20.85 22.125-38.13 47.17-39.89 10.8-0.445 22.25 5.105 26.49 10.985 2.56 3.425 0.865 8.505-3.98 8.505-3.59 0-6.23-3.66-7.885-5.165-5.87-5.245-12.035-7.71-20.59-7.71-18.5 0-35.51 12.51-41.205 33.275z" fill="url(#paint2_linear_1_1180)"/>
   <path d="m128.02 66.43c-7.755 15.85-20.485 28.445-38.55 28.445-10.18 0-13.73-3.12-18.575-5.205 4.98 2.485 10.345 3.59 17.065 0.17 17.39 0 29.825-7.96 40.06-23.41z" fill="url(#paint3_linear_1_1180)"/>
  </g>
  <path transform="matrix(.5 0 0 .5 4.365 4.73)" d="m213.58 190.7c-13.987 14.525-22.375 19.194-36.7 19.845-5.4216 0.24638-14.234 0.17357-19.653-0.11415-40.03-2.1252-67.039-27.856-77.264-62.919-0.66 18.1 4.88 46.27 29.17 63.19 17.87 12.25 30.52 20.75 30.52 20.75-16.069 2.5826-55.381-3.3455-80.967-25.463-4.2264-3.6535-10.235-10.48-13.643-14.91-11.085-14.411-23.009-35.387-19.023-53.336 5.9683-26.877 25.101-55.064 57.117-60.369 5.5104-0.91298 14.734-1.118 20.07 0.48467 3.1812 0.95548 5.9485 2.4176 7.9651 4.4035-19.17 0-41.434 21.721-41.434 69.951 0 32.37 25.125 75.525 69.905 79.235 14.02-1.67 35.689-10.43 46.589-16.56l36.465 9.1479z" fill="url(#paint4_linear_1_1180)"/>
 </g>
</svg>
